<svg t="1722243137021" class="icon" viewBox="0 0 1024 1024" version="1.1" xmlns="http://www.w3.org/2000/svg" p-id="7420" width="200" height="200"><path d="M391.056174 200.007056a73.64197 73.64197 0 1 0-73.64197-73.605405 73.605405 73.605405 0 0 0 73.64197 73.605405z" fill="#FF6299" p-id="7421"></path><path d="M740.398467 306.082207l-177.523219 127.063478a181.801328 181.801328 0 0 1-47.717364-128.708904l144.980343-258.331935a29.837064 29.837064 0 0 0-8.775607-39.051452l-2.303597-1.645426a29.800499 29.800499 0 0 0-40.952833 6.508575l-163.335988 219.719264-347.550607 0.548475a29.837064 29.837064 0 0 0-3.656503 59.527868l235.405661 30.495235a454.247364 454.247364 0 0 0 67.279655 230.359687L215.434336 682.116972a370.952226 370.952226 0 0 0 356.80156-56.639231 369.74558 369.74558 0 0 0 168.162571-319.395534z" fill="#FF6299" p-id="7422"></path><path d="M928.48898 511.797064h-227.69044a435.708894 435.708894 0 0 1-109.292874 118.507261l341.883028-55.725105a29.727369 29.727369 0 0 0 24.93735-29.252024v-3.656503a30.019889 30.019889 0 0 0-29.837064-29.837064z m-476.917682 482.658392a29.763934 29.763934 0 0 0 29.690804 29.544544h2.449857a29.690804 29.690804 0 0 0 29.252024-24.827655l62.782156-357.605991a443.862895 443.862895 0 0 1-125.856833 61.831466l1.645427 291.021071z" fill="#FF6299" p-id="7423"></path></svg>